<svg version="1.1" id="Layer_1" xmlns="http://www.w3.org/2000/svg" xmlns:xlink="http://www.w3.org/1999/xlink" x="0px" y="0px"
	 viewBox="0 0 475.5 386.67" style="enable-background:new 0 0 475.5 386.67;" xml:space="preserve">
<path fill="#fff" d="M300.03,2.67c2.24,0.64,4.5,1.22,6.73,1.93c16.96,5.42,27.82,20.29,28.09,39.11c0.25,17.21,0.12,34.43,0.03,51.65
	c-0.04,7.72-5.08,12.93-12.07,12.89c-6.96-0.04-11.8-5.29-11.83-13.09c-0.06-16.47-0.01-32.93-0.02-49.4
	c-0.01-12.82-6.29-19.14-19-19.14c-54.89,0-109.78,0-164.67,0c-1.24,0-2.48,0-4.8,0c1.74,1.14,2.67,1.8,3.65,2.37
	c27.51,15.9,54.91,32,82.6,47.59c15.82,8.92,23.2,21.94,23.15,40.03c-0.19,59.63-0.07,119.26-0.07,178.89c0,1.47,0,2.95,0,4.9
	c1.68,0,3.01,0,4.34,0c18.71,0,37.43,0.01,56.14,0c12.17-0.01,18.64-6.5,18.67-18.76c0.03-14.6-0.08-29.19,0.05-43.79
	c0.07-8.64,7-14.15,14.91-12.16c5.15,1.29,8.7,5.7,8.92,11.54c0.19,4.98,0.08,9.98,0.06,14.97c-0.03,11.1,0.38,22.23-0.23,33.3
	c-1.26,22.84-18.32,38.72-41.18,38.83c-19.09,0.09-38.17,0.02-57.26,0.02c-1.34,0-2.67,0-4.43,0c0,7.34,0.09,14.3-0.02,21.24
	c-0.3,19-12.23,34.19-30.61,39.06c-9.73,2.58-19.24,1.65-27.9-3.28c-29.89-17.01-59.74-34.1-89.34-51.61
	c-13.12-7.76-18.67-20.22-18.64-35.31c0.04-24.33,0.01-48.65,0.01-72.98c0-58.63,0.05-117.27-0.03-175.9
	c-0.02-16.45,6.33-29.35,20.72-37.6c4.32-2.48,9.43-3.58,14.18-5.31C166.79,2.67,233.41,2.67,300.03,2.67z"/>
<path fill="#fff" d="M366.6,175.52c-2.41,0-3.73,0-5.05,0c-34.55,0-69.1,0.01-103.65-0.01c-7.76-0.01-13.14-4.83-13.28-11.72
	c-0.14-6.92,5.06-12.17,12.29-12.2c14.09-0.06,28.19-0.02,42.28-0.02c22.07,0,44.13,0,66.86,0c-0.85-1.12-1.31-1.9-1.93-2.52
	c-5.1-5.14-10.25-10.21-15.33-15.36c-5.27-5.34-5.49-12.86-0.58-17.66c4.84-4.74,12.15-4.55,17.39,0.65
	c12.66,12.57,25.28,25.17,37.84,37.84c5.45,5.49,5.47,12.42,0.01,17.93c-12.55,12.68-25.17,25.28-37.83,37.84
	c-5.35,5.3-12.45,5.49-17.37,0.67c-4.94-4.84-4.77-12.3,0.52-17.66C354.41,187.57,360.15,181.94,366.6,175.52z"/>
</svg>
